<?xml version="1.0" standalone="no"?>
<svg xmlns="http://www.w3.org/2000/svg" viewBox="0 0 117.649 29" width="117.649" height="29"><g fill="#000000" color="#000000" transform="translate(0, 0) scale(0.659091)"><svg width="44.0" height="44.0" x="0.0" y="0.0" viewBox="0 0 44 44"><path fill="currentColor" fill-rule="nonzero" d="M23.77 32.44V14.72h19.49v28.35H.74V32.44h23.03zM.74.55h42.52v10.63H20.23V28.9H.74V.55z"></path></svg></g><line x1="41" y1="1" x2="41" y2="28" stroke="#000000" stroke-linecap="round"></line><path fill="#000000" fill-rule="nonzero" d="M2.54 19.44L0 19.44L4.13 0L6.74 0L10.90 19.44L8.33 19.44L7.44 14.54L3.48 14.54L2.54 19.44ZM5.45 3.84L3.84 12.60L7.08 12.60L5.45 3.84ZM15.29 19.44L12.72 19.44L12.72 5.57L15.29 5.57L15.29 7.54Q16.06 6.26 16.82 5.83Q17.59 5.40 18.36 5.40L18.36 5.40Q18.46 5.40 18.54 5.40Q18.62 5.40 18.77 5.42L18.77 5.42L18.77 8.26Q18.48 8.14 18.11 8.05Q17.74 7.97 17.35 7.97L17.35 7.97Q16.75 7.97 16.26 8.24Q15.77 8.52 15.29 9.31L15.29 9.31L15.29 19.44ZM24.14 19.63L24.14 19.63Q22.44 19.63 21.56 18.95Q20.69 18.26 20.39 17.02Q20.09 15.77 20.09 14.11L20.09 14.11L20.09 10.92Q20.09 9.17 20.40 7.93Q20.71 6.70 21.59 6.04Q22.46 5.38 24.14 5.38L24.14 5.38Q25.66 5.38 26.48 5.87Q27.31 6.36 27.62 7.33Q27.94 8.30 27.94 9.74L27.94 9.74L27.94 10.56L25.61 10.56L25.61 9.72Q25.61 8.81 25.49 8.28Q25.37 7.75 25.06 7.51Q24.74 7.27 24.17 7.27L24.17 7.27Q23.54 7.27 23.21 7.56Q22.87 7.85 22.76 8.53Q22.66 9.22 22.66 10.39L22.66 10.39L22.66 14.76Q22.66 16.54 22.99 17.14Q23.33 17.74 24.19 17.74L24.19 17.74Q24.84 17.74 25.14 17.44Q25.44 17.14 25.52 16.58Q25.61 16.03 25.61 15.34L25.61 15.34L25.61 14.21L27.94 14.21L27.94 15.17Q27.94 16.56 27.61 17.57Q27.29 18.58 26.46 19.10Q25.63 19.63 24.14 19.63ZM32.71 19.63L32.71 19.63Q31.90 19.63 31.27 19.16Q30.65 18.70 30.29 17.96Q29.93 17.23 29.93 16.42L29.93 16.42Q29.93 15.12 30.36 14.23Q30.79 13.34 31.55 12.73Q32.30 12.12 33.30 11.66Q34.30 11.21 35.40 10.78L35.40 10.78L35.40 9.79Q35.40 8.95 35.30 8.40Q35.21 7.85 34.91 7.57Q34.61 7.30 34.01 7.30L34.01 7.30Q33.48 7.30 33.16 7.54Q32.83 7.78 32.69 8.22Q32.54 8.66 32.54 9.26L32.54 9.26L32.54 9.96L30 9.86Q30.05 7.56 31.06 6.47Q32.06 5.38 34.18 5.38L34.18 5.38Q36.24 5.38 37.10 6.50Q37.97 7.63 37.97 9.77L37.97 9.77L37.97 16.10Q37.97 16.75 38.00 17.35Q38.04 17.95 38.10 18.47Q38.16 18.98 38.21 19.44L38.21 19.44L35.86 19.44Q35.78 19.06 35.68 18.47Q35.57 17.88 35.52 17.40L35.52 17.40Q35.28 18.22 34.60 18.92Q33.91 19.63 32.71 19.63ZM33.72 17.42L33.72 17.42Q34.10 17.42 34.44 17.21Q34.78 16.99 35.04 16.72Q35.30 16.44 35.40 16.27L35.40 16.27L35.40 12.34Q34.80 12.67 34.27 13.01Q33.74 13.34 33.35 13.72Q32.95 14.09 32.72 14.56Q32.50 15.02 32.50 15.62L32.50 15.62Q32.50 16.46 32.81 16.94Q33.12 17.42 33.72 17.42ZM43.66 19.63L43.66 19.63Q41.90 19.63 41.04 18.35Q40.18 17.06 40.18 13.99L40.18 13.99L40.18 11.30Q40.18 9.72 40.44 8.36Q40.70 7.01 41.44 6.19Q42.17 5.38 43.58 5.38L43.58 5.38Q44.28 5.38 44.86 5.69Q45.43 6.00 45.89 6.46L45.89 6.46L45.89 0L48.46 0L48.46 19.44L45.89 19.44L45.89 18.55Q45.43 19.03 44.89 19.33Q44.35 19.63 43.66 19.63ZM44.30 17.62L44.30 17.62Q44.66 17.62 45.07 17.48Q45.48 17.35 45.89 17.09L45.89 17.09L45.89 7.99Q45.55 7.75 45.14 7.57Q44.74 7.39 44.26 7.39L44.26 7.39Q43.37 7.39 43.06 8.24Q42.74 9.10 42.74 10.30L42.74 10.30L42.74 14.21Q42.74 15.17 42.85 15.95Q42.96 16.73 43.30 17.17Q43.63 17.62 44.30 17.62ZM54.89 19.63L54.89 19.63Q53.26 19.63 52.37 19.00Q51.48 18.36 51.13 17.12Q50.78 15.89 50.78 14.09L50.78 14.09L50.78 10.92Q50.78 9.07 51.14 7.85Q51.50 6.62 52.40 6.00Q53.30 5.38 54.89 5.38L54.89 5.38Q56.64 5.38 57.47 6.10Q58.30 6.82 58.56 8.17Q58.82 9.53 58.82 11.42L58.82 11.42L58.82 12.55L53.35 12.55L53.35 15.34Q53.35 16.18 53.51 16.70Q53.66 17.23 54.01 17.48Q54.36 17.74 54.91 17.74L54.91 17.74Q55.49 17.74 55.79 17.46Q56.09 17.18 56.20 16.67Q56.30 16.15 56.30 15.46L56.30 15.46L56.30 14.62L58.80 14.62L58.80 15.14Q58.80 17.23 57.91 18.43Q57.02 19.63 54.89 19.63ZM53.35 10.42L53.35 11.16L56.30 11.16L56.30 9.91Q56.30 9.05 56.21 8.46Q56.11 7.87 55.81 7.57Q55.51 7.27 54.86 7.27L54.86 7.27Q54.24 7.27 53.92 7.56Q53.59 7.85 53.47 8.53Q53.35 9.22 53.35 10.42L53.35 10.42ZM64.85 19.63L64.85 19.63Q63.77 19.63 63.11 19.22Q62.45 18.82 62.15 18.07Q61.85 17.33 61.85 16.32L61.85 16.32L61.85 7.27L60.38 7.27L60.38 5.57L61.85 5.57L61.85 1.51L64.42 1.51L64.42 5.57L66.65 5.57L66.65 7.27L64.42 7.27L64.42 16.15Q64.42 16.97 64.68 17.32Q64.94 17.66 65.69 17.66L65.69 17.66Q65.88 17.66 66.13 17.64Q66.38 17.62 66.62 17.59L66.62 17.59L66.62 19.49Q66.14 19.56 65.74 19.60Q65.33 19.63 64.85 19.63Z" transform="translate(51, 4.78)"></path></svg>