<?xml version="1.0" standalone="no"?>
<svg xmlns="http://www.w3.org/2000/svg" viewBox="0 0 119.808 36" width="119.808" height="36"><g fill="#000000" color="#000000" transform="translate(0 4) scale(0.6363637)"><svg width="44.0" height="44.0" x="0.0" y="0.0" viewBox="0 0 44 44"><path fill="currentColor" fill-rule="evenodd" d="M21.973 29.756l14.787 8.535-9.168 5.28-5.605-3.224-5.563 3.225-9.182-5.281 14.73-8.535zm0-15.005L44 27.454v6.492l-3.52 2.07-18.506-10.675L3.525 36.016l-3.52-2.042v-6.52L21.973 14.75zM21.97 0l22.026 12.689v10.576L21.984 10.591 0 23.294V12.703L21.97 0z"></path></svg></g><path fill="#000000" fill-rule="nonzero" d="M9.12 2.40L14.59 18.05L11.11 18.05L10.15 15.10L4.42 15.10L3.48 18.05L0 18.05L5.47 2.40Q5.83 1.58 6.28 1.27Q6.72 0.96 7.37 0.96Q8.02 0.96 8.41 1.25Q8.81 1.54 9.12 2.40L9.12 2.40ZM5.26 12.29L9.38 12.29L7.37 5.52L5.26 12.29ZM23.98 4.39L23.98 4.39L23.11 7.46Q22.75 7.32 22.30 7.32L22.30 7.32Q21.10 7.32 19.34 8.35L19.34 8.35L19.34 18.05L16.22 18.05L16.22 4.34L18.55 4.34L19.27 5.54L22.58 4.18Q22.82 4.15 23.23 4.15Q23.64 4.15 23.98 4.39ZM33.07 13.03L33.07 13.03L35.90 13.01Q35.88 13.20 35.86 13.70Q35.83 14.21 35.82 14.39Q35.81 14.57 35.76 14.95Q35.71 15.34 35.65 15.52Q35.59 15.70 35.50 15.98L35.50 15.98Q35.06 17.23 33.14 17.95L33.14 17.95Q31.92 18.38 30.59 18.38Q29.26 18.38 28.18 17.95Q27.10 17.52 26.47 16.85L26.47 16.85Q25.06 15.36 25.06 11.27Q25.06 7.18 26.47 5.69L26.47 5.69Q27.10 5.02 28.18 4.58Q29.26 4.15 30.58 4.15L30.58 4.15Q33.17 4.15 34.51 5.45Q35.86 6.74 35.86 9.05L35.86 9.05L33.02 9.05Q33.02 7.99 32.50 7.48Q31.97 6.96 30.54 6.96Q29.11 6.96 28.64 7.85Q28.18 8.74 28.18 10.51L28.18 10.51L28.18 11.76Q28.18 14.62 29.28 15.26L29.28 15.26Q29.78 15.58 30.60 15.58Q31.42 15.58 31.93 15.42Q32.45 15.26 32.68 14.88Q32.90 14.50 32.98 14.12Q33.05 13.75 33.07 13.03ZM47.95 4.25L47.95 18.05L45.86 18.05L44.90 16.39L41.57 18.19Q38.78 18.19 37.82 16.18L37.82 16.18Q37.34 15.19 37.16 14.05Q36.98 12.91 36.98 11.68Q36.98 10.44 37.01 9.85Q37.03 9.26 37.13 8.48Q37.22 7.70 37.40 7.18Q37.58 6.65 37.92 6.08Q38.26 5.52 38.74 5.18L38.74 5.18Q39.82 4.44 41.54 4.44L41.54 4.44L44.83 4.44L47.95 4.25ZM42.46 14.90L44.83 13.68L44.83 7.25L42.46 7.25Q41.14 7.25 40.62 8.26Q40.10 9.26 40.10 11.27Q40.10 13.27 40.60 14.09Q41.09 14.90 42.46 14.90L42.46 14.90ZM61.30 0L61.30 18.05L59.21 18.05L58.25 16.39L54.91 18.19Q52.13 18.19 51.17 16.18L51.17 16.18Q50.69 15.19 50.51 14.05Q50.33 12.91 50.33 11.68Q50.33 10.44 50.35 9.85Q50.38 9.26 50.47 8.48Q50.57 7.70 50.75 7.18Q50.93 6.65 51.26 6.08Q51.60 5.52 52.08 5.18L52.08 5.18Q53.16 4.44 54.89 4.44L54.89 4.44L58.18 4.44L58.18 0L61.30 0ZM55.80 14.90L58.18 13.68L58.18 7.25L55.80 7.25Q54.48 7.25 53.96 8.26Q53.45 9.26 53.45 11.27Q53.45 13.27 53.94 14.09Q54.43 14.90 55.80 14.90L55.80 14.90ZM75.07 11.93L75.07 11.93L67.08 11.93Q67.08 13.80 67.67 14.66Q68.26 15.53 70.03 15.53L70.03 15.53Q71.18 15.53 71.74 14.80Q72.29 14.06 72.29 13.39L72.29 13.39L75.10 13.39Q75.10 15.96 73.72 17.16Q72.34 18.36 70.07 18.36Q67.80 18.36 66.55 17.71L66.55 17.71Q63.98 16.39 63.98 10.70L63.98 10.70Q63.98 7.32 65.45 5.75Q66.91 4.18 69.91 4.18L69.91 4.18Q75.12 4.18 75.12 9.96L75.12 9.96Q75.12 10.58 75.07 11.93ZM67.15 9.79L67.15 9.79L72.29 9.79Q72.29 8.21 71.69 7.49Q71.09 6.77 69.85 6.77Q68.62 6.77 67.88 7.50Q67.15 8.23 67.15 9.79ZM83.81 15.41L83.81 18.05L81.86 18.05Q80.09 18.05 79.16 16.99Q78.24 15.94 78.24 14.47L78.24 14.47L78.24 7.27L76.92 7.27L76.92 4.90L78.24 4.90L78.24 2.21L81.36 2.21L81.36 4.90L83.57 4.90L83.57 7.27L81.36 7.27L81.36 14.28Q81.36 15.41 82.44 15.41L82.44 15.41L83.81 15.41Z" transform="translate(36, 8.976)"></path></svg>